<?xml version="1.0" encoding="UTF-8"?>
<svg version="1.1" viewBox="0 0 2048 1020" width="1280" height="1280" xmlns="http://www.w3.org/2000/svg">
<path transform="translate(485,319)" d="m0 0h29l26 3 21 5 18 6 16 8 15 8 14 10 16 13 10 9 13 13 13 17 11 18 12 25 6 20 3 14 1 8v38l-3 16-7 20-11 21-10 14-12 14-16 16-10 8-15 10-18 10-20 8-15 4-15 2h-40l-2 69-1 35-1 13-4 9-4 6-7 8-11 7-11 3h-8l-10-2-9-6-6-10-3-9-1-7-1-22 1-75 2-135v-37l-31-6-15-6-13-9-10-10-8-13-5-11-4-13-2-14v-12l4-17 5-12 6-11 16-21 6-7 8-7 15-12 18-11 13-6 15-4zm-4 81-16 2-11 4-11 7-7 7-4 8v8l4 11 5 8 2 2 10-1 11-5 14-4h15l9 2 8 7 5 12 3 18 1 16 1 98 3 2h40l14-4 16-8 10-7 8-7 9-11 6-9 5-15 3-19v-23l-3-16-6-16-6-10-11-13-8-8-13-10-15-10-14-7-16-5-22-3-19-1z" fill="#FDFDFD"/>
<path transform="translate(1520,448)" d="m0 0h19l20 3 18 6 21 10 14 10 10 9 9 11 10 15 7 14 5 16 3 16v22l-4 17-8 16-11 14-9 9-16 11-11 5-16 5-26 4-26 2-24 1h-33l-17-1 5 9 9 17 8 10 10 9 13 8 16 8 13 5 11 2h23l17-4 15-6 15-8 15-13 13-9 3-1h13l9 4 8 6 6 9 3 9 1 10-2 10-5 12-6 10-11 12-14 11-18 10-19 8-16 5-16 3-10 1h-21l-24-3-19-5-16-6-16-8-14-9-9-7-10-9-9-9-9-11-11-14-10-16-8-16-10-30-4-19-2-18v-25l3-23 6-24 8-20 7-12 10-13 7-7 7-8 7-7 14-11 11-7 23-12 13-6 18-5zm-11 74-13 4-15 9-12 11-9 12-5 11-4 20v4h23l44-2 39-4 15-3 9-4 3-3 1-4v-15l-4-11-9-10-10-7-11-5-14-3z" fill="#FDFDFD"/>
<path transform="translate(940,444)" d="m0 0h13l10 4 9 7 8 8 26 36 11 14 8 10 11 13 7 9 5-1 8-7 12-13 10-11 7-8 10-10 7-8 11-11 1-2h2l2-4 7-7 13-10 10-5 3-1h18l10 5 7 8 4 11v17l-5 12-9 12-11 13-7 9-12 14-8 10h-2l-2 4-10 11-11 14-9 11-8 10 1 5 7 12 10 13 13 16 9 12 13 17 13 16 12 14 9 11 7 12 2 6v13l-4 11-8 10-11 8-9 4h-17l-10-4-6-4-11-11-13-17-10-13-11-14-14-17-11-14-12-14-3-2-11 14-7 7-7 8-12 13-9 10-22 24-11 14-11 12-10 8-9 4-5 1h-9l-11-4-8-6-6-8-4-10-1-5v-10l3-12 6-11 10-11 7-8 9-10 9-11 11-12 1-2h2l2-4 6-6h2l2-4 10-10 4-5h2l2-4 10-10 4-5 5-5 1-4-4-6-11-12-8-10-14-18-12-16-13-16-7-9-10-12-11-16-3-7-1-5v-9l3-10 7-10 7-7 11-6z" fill="#FDFDFD"/>
<path transform="translate(797,442)" d="m0 0h18l10 5 7 7 5 9 2 15v36l1 16v225l-3 16-7 11-8 7-10 5-10 2-12-1-12-6-6-5-6-9-4-13-1-15v-27l1-66v-136l-1-19v-22l4-10 7-9 8-8 10-6z" fill="#1D1F48"/>
<path transform="translate(940,444)" d="m0 0h13l10 4 9 7 8 8 26 36 11 14 8 10 11 13 7 9 5-1 8-7 12-13 10-11 7-8 10-10 7-8 11-11 1-2h2l2-4 7-7 13-10 10-5 3-1h18l10 5 7 8 4 11v17l-5 12-9 12-11 13-7 9-12 14-8 10h-2l-2 4-10 11-11 14-9 11-8 10 1 5 7 12 10 13 13 16 9 12 13 17 13 16 12 14 9 11 7 12 2 6v13l-4 11-8 10-11 8-9 4h-17l-10-4-6-4-11-11-13-17-10-13-11-14-14-17-11-14-12-14-3-2-11 14-7 7-7 8-12 13-9 10-22 24-11 14-11 12-10 8-9 4-5 1h-9l-11-4-8-6-6-8-4-10-1-5v-10l3-12 6-11 10-11 7-8 9-10 9-11 11-12 1-2h2l2-4 6-6h2l2-4 10-10 4-5h2l2-4 10-10 4-5 5-5 1-4-4-6-11-12-8-10-14-18-12-16-13-16-7-9-10-12-11-16-3-7-1-5v-9l3-10 7-10 7-7 11-6zm2 15-9 6-7 7-4 8 2 9 6 10 10 13 13 15 11 14 14 18 11 14 11 13 9 11 8 9 3 6-2 5-6 10-5 6-8 7-20 20-8 11-8 8-9 11-9 9-7 8-9 10-10 11-10 15-1 3v12l4 9 5 5 6 4 6 1 9-3 10-9 6-8 8-14 8-10 16-16 7-8 9-10 9-11 15-16 6-7 10-8h6l8 5 9 9 13 17 14 18 13 17 12 15 7 9 9 10 4 5 9 6 5 2h10l10-5 6-7 1-2v-10l-5-10-20-20-10-11-13-17-14-18-10-13-12-15-11-15-7-13v-6l6-8 13-14 11-14 9-10 9-11 10-11 9-11 15-15 11-14 4-5 3-8v-8l-3-7-5-5-8-4h-11l-12 6-10 9-7 7-8 15-9 10-16 16-2 1v2l-4 2-7 10-6 9-9 9-10 8-8-2-6-4-9-10-11-14-13-15-10-13-13-18-14-20-7-7-9-5z" fill="#1C1D46"/>
<path transform="translate(1278,444)" d="m0 0h16l10 5 7 7 5 10 2 10 1 44 1 170 1 37v31l-4 13-6 9-9 7-13 5h-14l-10-4-9-8-6-10-5-17-1-6-1-27-1-164v-62l2-16 5-12 7-9 7-6 12-6z" fill="#1F214A"/>
<path transform="translate(485,319)" d="m0 0h29l26 3 21 5 18 6 16 8 15 8 14 10 16 13 10 9 13 13 13 17 11 18 12 25 6 20 3 14 1 8v38l-3 16-7 20-11 21-10 14-12 14-16 16-10 8-15 10-18 10-20 8-15 4-15 2h-40l-2 69-1 35-1 13-4 9-4 6-7 8-11 7-11 3h-8l-10-2-9-6-6-10-3-9-1-7-1-22 1-75 2-135v-37l-31-6-15-6-13-9-10-10-8-13-5-11-4-13-2-14v-12l4-17 5-12 6-11 16-21 6-7 8-7 15-12 18-11 13-6 15-4zm12 19-36 4-19 5-16 7-13 9-14 14-9 12-11 23-3 10-1 7v16l3 14 5 12 8 11 11 11 14 8 14 5 35 7 4 1-3 3-3 10-1 12-1 57-3 94-1 44v48l4 13 6 7 5 3 7 1 9-3 6-4 4-8 1-3v-102l2-20 4-7h36l20-2 23-5 15-5 16-8 14-8 13-10 8-7 7-8 12-15 8-13 10-21 5-21 1-9v-34l-4-20-7-21-9-17-12-18-9-11-7-8-8-7-13-11-17-13-16-9-17-8-19-6-25-5-9-1z" fill="#1D1E47"/>
<path transform="translate(1520,448)" d="m0 0h19l20 3 18 6 21 10 14 10 10 9 9 11 10 15 7 14 5 16 3 16v22l-4 17-8 16-11 14-9 9-16 11-11 5-16 5-26 4-26 2-24 1h-33l-17-1 5 9 9 17 8 10 10 9 13 8 16 8 13 5 11 2h23l17-4 15-6 15-8 15-13 13-9 3-1h13l9 4 8 6 6 9 3 9 1 10-2 10-5 12-6 10-11 12-14 11-18 10-19 8-16 5-16 3-10 1h-21l-24-3-19-5-16-6-16-8-14-9-9-7-10-9-9-9-9-11-11-14-10-16-8-16-10-30-4-19-2-18v-25l3-23 6-24 8-20 7-12 10-13 7-7 7-8 7-7 14-11 11-7 23-12 13-6 18-5zm-5 18-19 3-16 5-16 8-13 9-9 6-9 10-9 7-9 13-9 15-6 16-5 24-2 17v32l3 23 5 19 7 19 8 16 12 18 12 14 14 13 17 13 17 9 22 8 18 4 25 3h21l19-4 20-7 16-8 11-7 10-8 8-8 6-10 1-2v-11l-5-9-8-7-6-1-8 7-12 10-21 12-16 6-13 3-8 1h-24l-19-3-16-5-16-8-11-7-15-13-11-14-8-15-5-16-2-9 1-10 4-2 21-1 62 1 23-1 20-3 14-4 15-6 12-7 12-11 8-11 5-13 2-12v-10l-2-15-5-16-10-21-9-12-10-10-16-11-17-9-13-4-18-3z" fill="#1D1E47"/>
<path transform="translate(968,161)" d="m0 0 10 1 9 6 7 7 8 11 4 8 2 6v9l-6 9-14 12-8 8-8 7-11 10-11 9-13 11-11 9-14 11-15 13-11 9-10 8-6 5-13 18-9 10-10 7-18 6-45 11-28 6-12 1-4-2v-8l4-10 13-19 14-22 13-20 9-15 7-10 8-7 14-6 16-8 12-10 20-15 27-21 18-13 13-10 11-8 18-13 11-8z" fill="#1B1D45"/>
<path transform="translate(483,378)" d="m0 0h35l22 3 15 4 15 6 17 9 14 10 10 9 12 12 13 18 8 14 6 18 3 18v15l-2 18-4 14-6 12-13 19-9 11-13 11-13 8-11 5-17 5-12 2h-42l-8-4-1-4v-10l1-14v-102l-3-10-5-6-5-2h-15l-16 3-12-1-16-4-9-6-4-6-3-11v-10l2-10 6-12 9-10 11-9 15-8 15-4zm-2 22-16 2-11 4-11 7-7 7-4 8v8l4 11 5 8 2 2 10-1 11-5 14-4h15l9 2 8 7 5 12 3 18 1 16 1 98 3 2h40l14-4 16-8 10-7 8-7 9-11 6-9 5-15 3-19v-23l-3-16-6-16-6-10-11-13-8-8-13-10-15-10-14-7-16-5-22-3-19-1z" fill="#1C1D46"/>
<path transform="translate(799,457)" d="m0 0 8 1 10 5 8 9 3 8-1 10-6 11-1 8 4 16 1 8 1 60-1 43-1 120-2 11-4 6-5 4-3 1h-12l-7-4-7-8-3-8v-26l1-62v-118l1-27 3-16-1-10-4-11-1-5v-8l4-8 7-7z" fill="#FDFDFD"/>
<path transform="translate(940,444)" d="m0 0h13l10 4 9 7 8 8 26 36 11 14 8 10 11 13 7 9 5-1 8-7 12-13 10-11 7-8 10-10 7-8 11-11 1-2h2l2-4 7-7 13-10 10-5 3-1h18l10 5 7 8 4 11v17l-5 12-9 12-11 13-7 9-12 14-8 10h-2l-2 4-10 11-11 14-9 11-8 10 1 5 7 12 10 13 13 16 9 12 13 17 13 16 12 14 9 11 7 12 2 6v13l-4 11-8 10-11 8-9 4h-17l-10-4 1-2 8-3 2-2 1-4 7-3 12-2 9-6 4-6v-10l-5-10-26-26-13-17-12-15-12-16-9-11-10-13-10-14-5-10v-6l6-8 13-14 11-14 9-10 9-11 10-11 9-11 15-15 11-14 4-5 3-8v-8l-3-7-5-5-7-3h-11l-12 6-10 9-8 9-6 12-9 10-17 17h-2v2l-5 4-10 16-11 11-10 8-8-2-6-4-10-11-11-14-13-15-10-13-13-18-14-20-9-8-6-3h-7l-9 6-8 9-2 5h-3l-1-7-1-4-2-2 1-2h-2v-2l-2 1-1 3-5 2 6-9 7-7 11-6z" fill="#1D1E47"/>
<path transform="translate(1279,462)" d="m0 0h9l8 4 6 7 2 6v149l1 55v29l1 28v19l-3 9-5 4-5 2h-8l-10-4-5-5-5-10-1-6-1-71-1-144v-36l-1-9v-14l7-8 7-4z" fill="#FDFDFD"/>
<path transform="translate(1048,43)" d="m0 0h9l6 7 5 15 5 19 5 9 5 4 27 11 12 6 3 4-1 7-7 8-32 12-6 5-7 14-9 26-6 8-5 3-6-1-6-5-4-9-5-21-4-11-6-10-5-4-10-4-17-4-8-2-6-5-2-4 1-9 5-5 15-5 14-4 13-7 6-8 6-14 6-16 6-8z" fill="#1C1D46"/>
<path transform="translate(1275,282)" d="m0 0 13 1 13 4 8 4 9 7 7 8 5 9 2 8 1 17-2 13-4 11-7 11-8 8-10 6-11 4-5 1h-12l-13-3-12-6-8-7-7-10-5-11-3-15v-8l4-16 8-14 11-12 11-7 7-2z" fill="#1B1C45"/>
<path transform="translate(792,883)" d="m0 0h39l16 2 15 5 11 8 8 10 5 12 2 12v9l-2 11-5 12-7 11-12 12-13 8-12 4-21 3h-23l-7-2-2-7v-19l1-31 1-52 4-7zm19 26-3 1v67l1 2 6 1 15-3 10-4 9-7 8-9 4-12v-13l-5-10-5-6-8-5-8-2z" fill="#1C1E46"/>
<path transform="translate(1372,879)" d="m0 0h22l21 2 12 6 8 9 4 8 2 10-1 14-3 10-6 8-9 5 1 7 6 11 12 16-1 4-7 6-7 3h-5l-6-7-12-16-10-13h-14l-1 4-1 20-3 6-2 2h-11l-3-3-2-7-2-25-2-42v-25l4-8 6-4zm13 25-8 1-1 1v16l1 15 1 1h22l10-4 6-6 1-10-3-9-6-4-3-1z" fill="#1F2048"/>
<path transform="translate(1227,880)" d="m0 0h20l10 3 13 7 10 9 8 9 5 11 3 13v12l-3 12-8 15-10 12-11 8-8 3-5 1h-22l-14-3-11-6-11-11-9-14-5-14-1-4v-19l4-11 6-10 8-8 13-8 8-4zm4 22-10 3-10 6-6 7-4 10-1 12 3 10 7 10 8 7 13 5h15l9-4 7-6 6-12 1-3v-17l-4-11-7-9-7-6-6-2z" fill="#1D1F47"/>
<path transform="translate(673,883)" d="m0 0h43l4 5 1 2v8l-4 7-2 2-5 1-34 1-12 1-2 22h44l5 3 2 3-1 9-4 5-4 2-10 1-32 1-1 24h53l5 5 1 7-3 6-5 5-4 1h-32l-32-1-5-6-1-3 1-100 6-7 3-2 5-1z" fill="#1D1E47"/>
<path transform="translate(1522,502)" d="m0 0h14l18 4 16 8 9 6 10 10 8 14 3 11v15l-4 9-9 11-8 8-13 5-26 3-51 3h-43l-11-3-1-1v-14l4-17 5-12 7-11 9-12 4-5 8-7 12-9 25-13zm-13 20-13 4-15 9-12 11-9 12-5 11-4 20v4h23l44-2 39-4 15-3 9-4 3-3 1-4v-15l-4-11-9-10-10-7-11-5-14-3z" fill="#1D1E47"/>
<path transform="translate(940,444)" d="m0 0h13l10 4 9 7 8 8 26 36 11 14 8 10 11 13 7 9 5-1 8-7 12-13 10-11 7-8 10-10 7-8 11-11 1-2h2l2-4 7-7 13-10 10-5 3-1h18l10 5 7 8 4 11v17l-5 12-9 12-11 13v-3l6-8 2-7 2-2 1-7h2l1-5 3-4v-2l2-1 1-8-3-9-5-6v-2h-2v-2l-14-1-3 2h-3v2l4 1-13 2-9 5-10 9-8 9-6 12-9 10-17 17h-2v2l-5 4-10 16-11 11-10 8-8-2-6-4-10-11-11-14-13-15-10-13-13-18-14-20-9-8-6-3h-7l-9 6-8 9-2 5h-3l-1-7-1-4-2-2 1-2h-2v-2l-2 1-1 3-5 2 6-9 7-7 11-6z" fill="#1C1E47"/>
<path transform="translate(1044,881)" d="m0 0h78l6 5 2 6 1 8-3 5-7 3-7 1-19 1-4 1v50l-1 28-4 7-5 3h-12l-2-2v-23l1-20v-40l-1-3-3-1-24-2-7-2-2-3v-7l3-8 5-5z" fill="#1D1F47"/>
<path transform="translate(937,204)" d="m0 0 4 2 14 15 5 3-1 4-11 7-14 12-26 22-11 9-10 9-11 9-12 11-4 3h-2l-9-11-9-12-3-6 1-3 15-9 14-11 13-10 14-11 15-12 11-8z" fill="#FDFDFD"/>
<path transform="translate(1520,448)" d="m0 0h19l20 3 18 6 21 10 14 10 10 9 9 11 10 15 7 14 5 16 3 16v22l-4 17-2-1 2-20-1-5-6-2-2-9-3-1v8h-1l-2-15-5-16-10-21-9-12-9-9-16-11-17-9-13-4-18-3h-25l-19 3-16 5h-6v-2l-2-1 9-6 7-3 10-4 12-1v-2l16-3 10-2v-2h-16z" fill="#2B3161"/>
<path transform="translate(1270,303)" d="m0 0 13 1 11 4 9 8 6 10 2 6v16l-4 11-6 8-8 4h-15l-13-4-9-6-6-10-3-12v-9l3-10 6-9 7-6z" fill="#FDFDFD"/>
<path transform="translate(485,319)" d="m0 0h29l26 3 21 5 18 6 7 3-2 5h-6l-2 1-6-1-7 3-8 1-25-5-9-1h-24l-36 4-19 5-16 7-13 9-13 13-9 12-2 2-2-4 1-2-2-1 6-8h2l2-4 5-6h2l2-5h2v-2h2l1-4h2v-2l-6 3-20 20v-3l11-12 11-10 9-6-1-4 15-9 13-6 15-4z" fill="#2A3060"/>
<path transform="translate(1513,918)" d="m0 0h119l8 4 3 5v7l-5 6-6 2-121 1-6-5-2-5 1-7 5-6z" fill="#1D1E47"/>
<path transform="translate(529,933)" d="m0 0h33l6 4 4 5v8l-5 7-3 1-104 3h-12l-6-3-4-5-1-6 4-6 5-3 4-1 50-3z" fill="#1E1F47"/>
<path transform="translate(970,881)" d="m0 0h6l6 5 2 5v31l-2 48-2 20-4 6-6 4h-8l-5-3-2-5v-90l2-9 5-7z" fill="#1F2149"/>
<path transform="translate(1126,177)" d="m0 0 5 1 5 5 4 15 2 7 6 5 12 8 2 2-1 7-7 6-12 7-5 11-5 10-5 4-4-1-4-5-7-21-5-4-17-6-5-5 3-5 9-4 15-5 4-4 2-7 2-13 3-6z" fill="#1E1F48"/>
<path transform="translate(810,292)" d="m0 0h2l6 8 9 10 8 10 9 14-1 5-5 4-28 6-19 4-12 4h-5l3-11 10-18 18-30z" fill="#FDFDFD"/>
<path transform="translate(1050,78)" d="m0 0h2l5 16 3 10 14 9 14 8v2l-16 8-6 4-6 11-5 16-3-1-11-24-4-6-14-7-11-4v-4l8-3 11-2 10-16z" fill="#FDFDFD"/>
<path transform="translate(1151,447)" d="m0 0h18l10 5 7 8 4 11v17l-5 12-9 12-11 13v-3l6-8 2-7 2-2 1-7h2l1-5 3-4v-2l2-1 1-8-3-9-5-6v-2h-2v-2l-14-1-3 2h-3v2l4 1-13 2-9 5-10 9-7 8-1-4 2-4-6 4h-2v-3l-10 9-5 5-2-1 17-17 1-2h2l2-4 7-7 13-10 10-5z" fill="#2F3564"/>
<path transform="translate(1174,721)" d="m0 0h2l5 6-1 2 3 1 2 7 1-1h2l3 3 1 3v13l-4 11-8 10-11 8-9 4h-17l-10-4 1-2 8-3 2-2 1-4 7-3 12-2 9-6 4-6v-10l-5-10-5-6-1-4-3-1 4-2 7 5-1-6z" fill="#2B3061"/>
<path transform="translate(932,39)" d="m0 0 8 1 10 5 10 8 3 5-1 4-9 7-14 9-3 2-4-1-12-14-8-8 1-4 14-10z" fill="#1F2048"/>
<path transform="translate(1267,283)" d="m0 0h5l2 4 3 2h5l2 4-5 3-13 2v4l4 2-7 2-8 7-6 12-2 13-3-3h-3l-1 2v-3l-3-1v-2l-6-2h-2v16l-2 4-1-7v-8l4-16 8-14 11-12 11-7z" fill="#2C3161"/>
<path transform="translate(1137,33)" d="m0 0 5 2 10 9 8 9 2 6-7 6-11 6-6 6-4-1-9-10-6-10 1-4 8-10z" fill="#1D1F47"/>
<path transform="translate(940,444)" d="m0 0h13l10 4 6 4v5l4 5 2 4-4-2-5-5 1 4h-2l-1 4-5-3-4-1-6-3h-7l-9 6-8 9-2 5h-3l-1-7-1-4-2-2 1-2h-2v-2l-2 1-1 3-5 2 6-9 7-7 11-6z" fill="#2D3262"/>
<path transform="translate(797,442)" d="m0 0h18l10 5 3 4-2 2 3 5v2h-3l1 11-3 1-8-9-9-4-8-1-8 3-8 9-2 5-1 8-3-1-1 3h-2l-1-7 3-3 1-2 2-1 1-8h2l1-5 2-5-3-1-5 3-4 4-3 5-3 3-2-1 7-9 8-8 10-6z" fill="#2B3162"/>
<path transform="translate(478,446)" d="m0 0h15l9 2 5 4 1 5 2 9-1 1h-10l-3 1-3-2v-5l-5-2-3-2v-2h-6l-2 1-1 3-6 4-3 4-8 2v1l-12-1-5-1-1-3 3-7v-1l11-3 12-5z" fill="#2E3363"/>
<path transform="translate(1317,766)" d="m0 0 1 3-6 10-8 7-11 5-4 1h-14l-6-2 2-2 3-1 1-6 3-6 3-1h12v3l4-1 3 2v-2l9-1v-3h4l3-5z" fill="#2E3464"/>
<path transform="translate(963,178)" d="m0 0 5 2 16 15 4 7v7l-5 2-6-1-8-6-6-10-2-5-1-8z" fill="#FDFDFD"/>
<path transform="translate(1174,721)" d="m0 0h2l5 6-1 2 3 1 2 7 1-1h2l3 3 1 3v13l-4 11-4 5-5-2-1-7 3-2 4-9-1-5v-3l-2-2 1-2-2-1 1-2h-3l1 4-5 1-6-8-3-5v-2l-3-1 4-2 7 5-1-6z" fill="#2C3160"/>
<path transform="translate(828,481)" d="m0 0h1l2 10 1 2h-2l1 6v3l2 1v12l-2 4-1 9-3 1v-5l-1 3v13h-1l-3-20-3-13 2-8 5-9z" fill="#282E5F"/>
<path transform="translate(473,320)" d="m0 0h22l-4 2-7 3-10 2-8 1-7 2-16 3-6 1-5 2-4-1 3-3 13-6 15-4z" fill="#22234B"/>
<path transform="translate(596,597)" d="m0 0h5l-2 2 2 3-10 6-12 5-9 3-9-1v-2l-2-1 2-4 5-2 11-2 11-3z" fill="#282E5F"/>
<path transform="translate(407,498)" d="m0 0 7 1 12 5 35 7-2 1v3l-23-1-21-6-5-2v-2l-4-2-1-3z" fill="#282E5F"/>
<path transform="translate(1568,467)" d="m0 0 6 1h4l5-1 12 6 7 6 3 4 1 4h-6l-3-1 11 9 8 8h-3l-9-9-16-11-6-4 2-1 3 1v-2l-9-3-2-2-8-4z" fill="#191A43"/>
<path transform="translate(1328,319)" d="m0 0h3l2 14-1 16-3 11-2-1v-10l-6 4 1-8h-2l1-8-1-5 5-1v-3h2z" fill="#323867"/>
<path transform="translate(1188,467)" d="m0 0 2 4v17l-5 12-9 12-11 13v-3l6-8 2-7 2-2 1-7h2l1-5 3-4v-2l2-1 1-8-1-7h2z" fill="#333967"/>
<path transform="translate(1179,736)" d="m0 0h3l1 2 2 8 1 5-4 9-1 2h-3l1 7 4 2-2 4-5 2-2-2 1-8-7 1 1-3 6-5 2-4v-10l-1-6 3-2z" fill="#1D1F48"/>
<path transform="translate(479,454)" d="m0 0 6 1 4 4 4 2 1 5 3 3-7-2h-15l-9 2h-10v-1l11-2 4-5 5-2 1-4z" fill="#1A1C45"/>
<path transform="translate(503,482)" d="m0 0 3 2v2l5-1 1-2 1 14v7l-4 2-1 2-2-1v7h-1l-1 5h-1z" fill="#282E5F"/>
<path transform="translate(1522,502)" d="m0 0h14l18 4 11 5-2 2-9-2-1-1h-10l-8-1-3 1-3-2v-2l-4 1-8-1v-2l-2-1z" fill="#282E5F"/>
<path transform="translate(1661,700)" d="m0 0 5 2 7 10 1 5-4-1-5 1-4-1-7-6-4-2 4-2 6-1-1-3h2z" fill="#282E5F"/>
<path transform="translate(997,615)" d="m0 0h2l1 4-2 7-3 4h-2v2l-3 3-5 1-27 27v-3l11-11 4-5h2l2-4 10-10 4-5 5-5z" fill="#40446E"/>
<path transform="translate(1614,481)" d="m0 0 5 2 10 11 12 18 7 14-1 4h-2l-5-10-3-5v-5h-2l-4-8-4-5v-3l-4-2-9-10z" fill="#323459"/>
<path transform="translate(1169,460)" d="m0 0 5 2 2 1v2h2l2 5-1 6-1 7-2 1-3-11-5-5-8-4 3-3h5z" fill="#292F60"/>
<path transform="translate(1423,512)" d="m0 0 3 1-9 12-10 17-3 7-1-4 5-13v-2l2-5 2-3 2-1 6-7z" fill="#282E5F"/>
<path transform="translate(1521,740)" d="m0 0h8l3 2 14 1 7 2v1l15 1v1h-24l-19-3-1-2-4-2z" fill="#282E5E"/>
<path transform="translate(421,514)" d="m0 0 18 4 3 2-1 3-10-1-17-3 2-1 1-3z" fill="#363B69"/>
<path transform="translate(968,161)" d="m0 0h6l-1 3-4 2h-5v2l-11 6h-4l-2 2-3-1 13-10z" fill="#3D426E"/>
<path transform="translate(658,393)" d="m0 0 3 1 7 11 1 3h2l2 10h-3l-8-12-6-10h3z" fill="#282E5F"/>
<path transform="translate(1172,449)" d="m0 0 6 2 8 9 2 5-1 4-2 2-3-7-6-8-4-5z" fill="#25264F"/>
<path transform="translate(984,648)" d="m0 0 3 1 1 3-8 8-2 3-5 1-4 2 3-5 9-10z" fill="#282E5F"/>
<path transform="translate(1618,507)" d="m0 0 4 4 2 3 5 3 4 9 1 7h-3l-11-21z" fill="#1C1E49"/>
<path transform="translate(1260,475)" d="m0 0h1l2 23v36h-1l-1-32-1-10-3-10 1-4h2z" fill="#292F60"/>
<path transform="translate(1582,478)" d="m0 0 7 1 6 4 5 5 13 12 3 4-4-2-8-8-16-11-6-4z" fill="#1E214D"/>
<path transform="translate(780,483)" d="m0 0h1l4 14 2 6-1 10h-1l-1-9-4-12z" fill="#292F60"/>
<path transform="translate(1161,457)" d="m0 0h7l3 3-3 2h-5l-4 1-4-1v-2z" fill="#191A43"/>
<path transform="translate(1264,390)" d="m0 0 21 1 1 3h-12l-10-2z" fill="#3D426D"/>
<path transform="translate(1079,527)" d="m0 0 4 1-2 4-7 11-2-1 2-4 1-7z" fill="#282E5E"/>
<path transform="translate(637,561)" d="m0 0v3l-10 14-2-1 2-5 8-10z" fill="#292F60"/>
<path transform="translate(1228,329)" d="m0 0h1v16l-2 4-1-7v-8z" fill="#5C6186"/>
<path transform="translate(465,824)" d="m0 0h11l5 1v1l-5 1h-8l-7-1z" fill="#5F6388"/>
<path transform="translate(982,720)" d="m0 0 2 2-3 1-1 3-8 7-6 5 2-4z" fill="#232756"/>
<path transform="translate(1061,554)" d="m0 0 2 2-10 9-5 1-2-2 10-5z" fill="#292F60"/>
<path transform="translate(1127,566)" d="m0 0 2 2-9 10-2 2v-3l1-3h2l2-4z" fill="#3F4570"/>
<path transform="translate(982,210)" d="m0 0h5l3 4-2 4-3-1-5-6z" fill="#292F60"/>
<path transform="translate(922,63)" d="m0 0 9 9-3 2-8-9z" fill="#2E3463"/>
<path transform="translate(1614,481)" d="m0 0 5 2 9 10-3 1-11-12z" fill="#414264"/>
<path transform="translate(778,452)" d="m0 0v3l-5 5-3 5-3 3-2-1 7-9z" fill="#3C3F68"/>
<path transform="translate(1291,284)" d="m0 0 8 2 1 3-1 1h-6l-2-5z" fill="#414671"/>
<path transform="translate(1259,885)" d="m0 0 6 2 9 6-3 1-9-5z" fill="#484D77"/>
<path transform="translate(1582,478)" d="m0 0 7 1 6 4-2 3-11-7z" fill="#212552"/>
<path transform="translate(1154,447)" d="m0 0h10l4 2-4 1-2-1v2h-4v-2l-4-1z" fill="#191A43"/>
<path transform="translate(1015,121)" d="m0 0 5 1 8 3v1l-8 1-3-3-2-1z" fill="#292F60"/>
<path transform="translate(1462,759)" d="m0 0 11 7 2 2-6-1-8-6z" fill="#292F60"/>
<path transform="translate(1627,721)" d="m0 0 3 2-9 6h-2v-2h3v-3z" fill="#292F60"/>
<path transform="translate(987,635)" d="m0 0v3l-7 8h-2v2l-2-1 7-8z" fill="#292F60"/>
</svg>
