<?xml version="1.0" encoding="UTF-8"?>
<svg version="1.1" viewBox="0 0 2048 1255" width="1280" height="1280" xmlns="http://www.w3.org/2000/svg">
<path transform="translate(482,358)" d="m0 0h35l24 3 21 5 15 5 23 11 16 10 12 9 11 9 10 9 15 15 10 13 12 19 12 24 7 22 3 14 1 9v38l-3 16-6 17-8 17-11 17-9 11-9 10-13 13-13 10-17 11-17 9-22 8-14 3-10 1h-40l-2 69-1 35-1 13-4 9-6 9-9 8-12 6-5 1h-10l-9-2-9-6-6-10-3-9-1-7-1-22 1-75 2-135v-37l-30-6-13-5-12-7-12-11-9-13-7-16-4-16-1-8v-13l4-16 6-15 10-15 10-13 9-10 10-9 17-12 15-9 15-6 22-4zm-4 81-14 2-10 4-11 7-7 7-4 8v8l4 11 6 9 1 1 10-1 13-6 11-3h18l9 3 5 4 4 8 4 16 2 24 1 98 4 2h39l16-5 16-8 10-8 13-13 7-11 5-12 3-14 1-9v-23l-3-16-5-14-8-14-14-15-11-10-21-14-16-8-14-4-10-2-27-2z" fill="#FDFDFD"/>
<path transform="translate(1518,487)" d="m0 0h22l20 3 15 5 18 8 18 12 13 12 12 16 9 15 6 15 4 17 1 7v22l-5 19-7 14-11 14-8 8-14 10-14 7-16 5-27 4-25 2-25 1h-31l-18-1 5 8 8 16 8 11 7 7 15 10 15 8 16 6 11 2h23l17-4 15-6 15-8 15-13 13-9 3-1h13l8 3 10 8 5 8 3 9 1 10-2 10-5 12-6 10-12 13-13 10-18 10-24 10-15 4-20 3h-24l-23-3-19-5-16-6-16-8-16-10-14-12-12-12-9-11-11-14-10-16-8-16-10-30-4-20-2-17v-25l3-23 6-24 7-19 10-16 8-10 14-15 8-8 14-11 13-8 23-12 16-6 17-4zm-3 73-14 3-16 8-11 9-10 11-6 10-4 11-3 16v4h21l45-2 39-4 16-3 9-4 3-4 1-3v-15l-4-11-6-8-11-8-12-6-14-3z" fill="#FDFDFD"/>
<path transform="translate(939,483)" d="m0 0h14l9 3 9 7 9 9 13 18 14 19 14 18 11 13 8 10 3 3v2l5-2 10-9 7-8 4-5h2l2-4 14-15 6-7h2l2-4 8-8 7-8 15-15 14-10 9-4 5-1h8l12 3 8 7 5 8 2 7v17l-4 10-9 13-13 15-7 9-11 13-9 10-7 8-14 17-11 14-9 11 1 5 8 13 13 17 12 15 12 16 11 14 9 11 12 14 9 11 7 12 2 6v13l-4 11-8 10-12 9-8 3h-18l-10-4-10-9-11-12-14-19-20-25-13-16-8-10-11-13-3-2-13 16-15 16-7 8-12 13-9 10-12 13-11 14-11 12-10 8-9 4-4 1h-11l-12-5-9-8-6-12-2-8v-10l3-12 6-11 10-11 7-8 9-10 9-11 11-12 1-2h2l2-4 6-6h2l2-4 9-9 7-8 11-11 7-8 4-4-1-5-9-11-9-10-8-10-16-21-10-13-11-14-11-13-12-16-6-12-1-5v-9l2-8 6-10 9-9 10-6z" fill="#FDFDFD"/>
<path transform="translate(803,480)" d="m0 0 13 1 8 4 6 5 6 10 2 6 1 11v35l1 17v225l-2 13-5 10-7 8-9 6-8 3-13 1-9-2-10-6-5-4-6-9-4-13-1-15v-27l1-66v-136l-1-20v-21l4-10 7-9 8-8 10-6 6-2z" fill="#FDFDFD"/>
<path transform="translate(1284,482)" d="m0 0 10 1 9 4 5 5 5 6 4 10 1 7 1 44 1 170 1 37v31l-4 13-6 9-9 7-12 5h-15l-10-4-9-8-6-10-5-16-1-7-1-27-1-164v-62l2-16 4-10 6-9 7-7 11-6z" fill="#FDFDFD"/>
<path transform="translate(939,483)" d="m0 0h14l9 3 9 7 9 9 13 18 14 19 14 18 11 13 8 10 3 3v2l5-2 10-9 7-8 4-5h2l2-4 14-15 6-7h2l2-4 8-8 7-8 15-15 14-10 9-4 5-1h8l12 3 8 7 5 8 2 7v17l-4 10-9 13-13 15-7 9-11 13-9 10-7 8-14 17-11 14-9 11 1 5 8 13 13 17 12 15 12 16 11 14 9 11 12 14 9 11 7 12 2 6v13l-4 11-8 10-12 9-8 3h-18l-10-4-10-9-11-12-14-19-20-25-13-16-8-10-11-13-3-2-13 16-15 16-7 8-12 13-9 10-12 13-11 14-11 12-10 8-9 4-4 1h-11l-12-5-9-8-6-12-2-8v-10l3-12 6-11 10-11 7-8 9-10 9-11 11-12 1-2h2l2-4 6-6h2l2-4 9-9 7-8 11-11 7-8 4-4-1-5-9-11-9-10-8-10-16-21-10-13-11-14-11-13-12-16-6-12-1-5v-9l2-8 6-10 9-9 10-6zm4 14-8 4-9 9-4 8 1 9 8 13 11 14 13 15 11 14 13 17 10 13 12 14 9 11 7 8 2 4-1 5-9 14-16 15-14 14-8 11-8 8-9 11-11 12-12 13-9 9-12 17-3 9 1 11 5 10 8 6 3 1h9l9-5 9-9 11-19 9-11 16-16 7-8 12-14 7-8 9-10 11-12 8-6 6-1 8 4 11 11 4 6h2l2 5 11 14 6 8 11 14 20 25 9 11 10 10 10 5h9l8-3 8-7 2-4v-12l-5-10-26-26-12-16-10-12-12-16-22-28-10-14-4-9v-6l7-9 9-10 8-10 5-6v-2h2l9-11 2-4h2l8-10 9-10 6-7v-2l3-1 5-5 2-4h2l9-11 2-4h2l4-5 3-7 1-8-3-9-3-5-6-4-8-2-10 1-10 5-9 7-7 8-8 14-7 10-8 7-21 21-8 13-17 16-3 2-6-1-6-3-3-1-2-4-22-26-9-11-11-14-13-18-11-16-7-8-12-6z" fill="#191940"/>
<path transform="translate(482,358)" d="m0 0h35l24 3 21 5 15 5 23 11 16 10 12 9 11 9 10 9 15 15 10 13 12 19 12 24 7 22 3 14 1 9v38l-3 16-6 17-8 17-11 17-9 11-9 10-13 13-13 10-17 11-17 9-22 8-14 3-10 1h-40l-2 69-1 35-1 13-4 9-6 9-9 8-12 6-5 1h-10l-9-2-9-6-6-10-3-9-1-7-1-22 1-75 2-135v-37l-30-6-13-5-12-7-12-11-9-13-7-16-4-16-1-8v-13l4-16 6-15 10-15 10-13 9-10 10-9 17-12 15-9 15-6 22-4zm20 18-33 3-19 4-17 6-14 8-11 9-7 7-10 13-8 14-6 15-2 10v21l4 16 7 13 12 14 10 7 16 8 12 3 23 4 7 2-3 10-1 5-1 28-1 54-3 99v74l3 10 9 10 5 2h9l8-4 5-6 3-6 1-6v-106l2-14 3-5h40l19-2 22-5 19-7 18-10 16-11 12-11 7-7 10-13 10-15 8-17 5-17 3-21v-27l-3-19-6-20-8-17-18-27-12-13-9-9-11-9-14-12-15-9-21-11-18-6-23-5-19-2z" fill="#191940"/>
<path transform="translate(1518,487)" d="m0 0h22l20 3 15 5 18 8 18 12 13 12 12 16 9 15 6 15 4 17 1 7v22l-5 19-7 14-11 14-8 8-14 10-14 7-16 5-27 4-25 2-25 1h-31l-18-1 5 8 8 16 8 11 7 7 15 10 15 8 16 6 11 2h23l17-4 15-6 15-8 15-13 13-9 3-1h13l8 3 10 8 5 8 3 9 1 10-2 10-5 12-6 10-12 13-13 10-18 10-24 10-15 4-20 3h-24l-23-3-19-5-16-6-16-8-16-10-14-12-12-12-9-11-11-14-10-16-8-16-10-30-4-20-2-17v-25l3-23 6-24 7-19 10-16 8-10 14-15 8-8 14-11 13-8 23-12 16-6 17-4zm-1 17-21 3-20 7-18 10-11 8-8 7-9 9-8 6-11 18-6 10-6 16-5 27-1 8v43l4 24 6 19 8 20 10 17 12 16 16 16 8 7 13 10 19 10 22 8 20 4 31 3 16-1 17-4 22-8 17-9 12-9 10-9 8-11 2-7-1-9-6-9-5-5-6-3-7 4-4 3v2l-4 2-10 8-13 8-16 7-15 4-6 1h-33l-20-4-14-5-19-10-14-11-11-11-9-14-7-15-4-15v-15l8-1h95l19-2 18-4 16-6 11-6 13-10 9-11 6-12 3-12v-22l-5-21-7-16-10-16-11-12-13-10-15-9-14-6-19-4-8-1z" fill="#191940"/>
<path transform="translate(966,200)" d="m0 0h10l6 3 10 9 7 8 7 12 2 7v9l-5 8-11 9-9 9-8 7-12 11-11 9-13 11-11 9-16 13-11 9-15 13-9 7-7 6-14 19-10 11-14 7-25 7-29 7-33 7-10 1-4-2v-8l4-10 11-16 24-38 10-15 8-14 9-9 15-7 12-5 13-10 14-11 16-12 18-14 19-14 13-10 11-8 18-13 11-8z" fill="#17173F"/>
<path transform="translate(485,417)" d="m0 0h30l24 3 19 5 16 7 11 6 16 11 13 12 10 11 10 14 9 15 6 18 3 13v30l-4 20-8 16-14 20-9 10-10 9-17 10-12 5-16 4-5 1-14 1h-17l-16-1-6-3-1-1v-23l1-15v-87l-3-12-4-7-8-4h-11l-16 3h-11l-17-4-10-5-6-8-2-7v-18l4-12 7-10 8-8 13-9 10-5 16-4zm-7 22-14 2-10 4-11 7-7 7-4 8v8l4 11 6 9 1 1 10-1 13-6 11-3h18l9 3 5 4 4 8 4 16 2 24 1 98 4 2h39l16-5 16-8 10-8 13-13 7-11 5-12 3-14 1-9v-23l-3-16-5-14-8-14-14-15-11-10-21-14-16-8-14-4-10-2-27-2z" fill="#18173F"/>
<path transform="translate(803,480)" d="m0 0 13 1 8 4 6 5 6 10 2 6 1 11v35l1 17v225l-2 13-5 10-7 8-9 6-8 3-13 1-9-2-10-6-5-4-6-9-4-13-1-15v-27l1-66v-136l-1-20v-21l4-10 7-9 8-8 10-6 6-2zm-4 15-8 3-3 2v2h-2l-5 8-1 3v12l4 14 1 2v7l-2 12-1 12v96l-1 83v48l5 10 8 7 5 2h10l8-4 4-5 3-8 1-24v-77l1-36v-78l-1-22-4-18 3-7 4-11v-11l-5-10-7-7-8-4z" fill="#181840"/>
<path transform="translate(1284,482)" d="m0 0 10 1 9 4 5 5 5 6 4 10 1 7 1 44 1 170 1 37v31l-4 13-6 9-9 7-12 5h-15l-10-4-9-8-6-10-5-16-1-7-1-27-1-164v-62l2-16 4-10 6-9 7-7 11-6zm-3 18-9 3-9 7-3 5v9l1 10 1 160 1 88 2 13 4 9 8 7 5 2h13l7-4 3-5 1-4v-29l-1-77-1-178-4-8-6-5-8-3z" fill="#1A1A41"/>
<path transform="translate(1049,81)" d="m0 0h6l6 4 4 8 8 29 4 8 5 5 19 8 17 7 6 5 1 7-6 8-10 5-23 8-7 6-8 16-7 21-5 9-6 4h-6l-6-4-5-10-6-25-5-12-5-7-12-6-26-6-6-4-3-6v-6l5-7 11-4 18-5 12-6 5-5 7-14 8-20 5-8z" fill="#191840"/>
<path transform="translate(1272,321)" d="m0 0h11l14 3 14 7 10 9 6 8 4 9 2 14-1 17-5 15-7 11-7 7-14 8-9 3-13 1-12-2-12-5-8-6-8-8-8-16-3-15v-8l4-16 6-11 7-9 7-7 10-6z" fill="#181840"/>
<path transform="translate(792,922)" d="m0 0h27l20 1 12 2 10 4 8 5 7 6 7 11 4 13 1 7v9l-2 12-5 11-7 11-12 12-11 7-10 4-14 3-8 1h-28l-5-2-2-7v-19l1-32 1-51 4-6zm21 26-5 1v67l2 3h8l15-4 12-6 7-6 6-9 3-10v-12l-4-10-9-9-8-4-6-1z" fill="#18183F"/>
<path transform="translate(1386,918)" d="m0 0 22 1 12 3 9 6 6 7 4 8 2 10-1 14-3 10-6 8-8 5h-2l4 11 7 11 8 11 1 5-8 6-10 4-6-5-11-15-12-16-2-1h-12l-2 1-1 23-3 6-2 2-8 1-5-2-3-9-2-24-2-44v-24l4-8 6-4zm0 25-9 1-1 1v15l1 17h24l12-6 3-4 1-10-3-8-4-4-6-2z" fill="#1A1941"/>
<path transform="translate(1228,919)" d="m0 0h17l12 3 14 8 10 9 6 7 6 12 3 13v12l-3 12-7 14-9 11-8 7-12 6-12 2-19-1-13-4-9-5-8-7-9-13-6-12-3-10v-20l4-11 6-10 7-7 14-9 11-5zm4 22-13 4-9 6-5 6-4 10-1 13 4 11 7 9 7 6 9 4 4 1h16l10-5 8-9 4-11v-17l-5-12-6-8-6-5-7-3z" fill="#1A1941"/>
<path transform="translate(939,483)" d="m0 0h14l9 3 9 7 9 9 13 18 14 19 14 18 11 13 8 10 3 3v2l5-2 10-9 7-8 4-5h2l2-4 14-15 6-7h2l2-4 8-8 7-8 15-15 14-10 3-1 1 2 13-1 4 2-3 4 5 3 6 3 4 1v2h2l2 6 2 1 2 5 3 4 3-2-1 7-6-1h-2l-1 6-5 9-3 1-1 4-9 10-7 8-5 4-7 9-5 4-3 5-10 10-7 8-9 11-5 6h-2l-2 4-4 7-6 6-2 4h-2l-1 4-4 4 1 7 7 11 14 18 6 7 2 2 2 5 4 1 10 12 6 9v2l3 1 7 11 3 3 4 7 7 8 2 1v2l4 2v2l4 1 10 10 4 7 1 5v11l-4 10-2 1-2 4h-2l-2 5-4 2v2l-12 1-2-4h2v-2l-6 1-9-11-10-10-8-10-9-11-8-10-14-18-9-12 1-2 11 13 4 6 13 16 10 13 14 17 9 9 10 5h9l8-3 7-6 2-4v-12l-5-10-26-26-12-16-10-12-12-16-22-28-10-14-4-9v-6l7-9 9-10 8-10 6-8h2l2-4 9-11h2l2-4 12-14 9-11 8-7 2-3h2l2-4 8-9 1-2h2l6-12 1-8-3-9-2-4-6-4-8-2-10 1-10 5-9 7-8 10-9 16-5 6-8 7-20 20-8 13-7 7-8 7-6 5-6-1-6-3-5-5-7-8-9-11-12-14-11-14-10-13-16-23-7-9-10-6-7-1-8 4-8 8-4 8 1 9 8 13 8 10v2h-2l-11-15-6-11-2-12-1-11 2-5h-2l-6 5-2-1 10-10 10-6z" fill="#2F2952"/>
<path transform="translate(675,922)" d="m0 0h41l4 5 1 2v8l-3 6-3 3-4 1-47 2-2 22h44l6 4 1 8-3 6-3 3-9 2-36 1v24h51l4 2 3 6-1 7-5 7-5 2h-58l-9-2-4-8 1-100 6-7 4-2 6-1z" fill="#191940"/>
<path transform="translate(1518,542)" d="m0 0h20l13 3 14 5 11 7 10 9 7 10 5 11 2 10v10l-3 9-8 10-11 11-10 4-12 2-61 4h-51l-9-3-1-7 3-19 5-15 7-11 12-16 11-11 15-10 17-9 8-3zm-3 18-14 3-16 8-11 9-10 11-6 10-4 11-3 16v4h21l45-2 39-4 16-3 9-4 3-4 1-3v-15l-4-11-6-8-11-8-12-6-14-3z" fill="#181840"/>
<path transform="translate(482,358)" d="m0 0h35l24 3 21 5 15 5 11 5-3 7-3 4 2 1v2l5 2 19 11 5 4 8 6 9 7 5 5 9 8 5 4v2l3 1 7 8 4 5 3 3 9 14 7 10 7 15 4 14 1 8 2 5 3 15-2 13-1 15-3 19-6 18-5 12-10 15-3 6h-2l-2 4-5 6-1 2h-2l-1 4h-2l-1 3-10 8-9 7-3-1 14-11 12-12 10-13 10-15 8-17 5-17 3-21v-27l-3-19-6-20-8-17-18-27-12-13-8-8-11-9-14-12-15-9-21-11-18-6-23-5-19-2h-15l-33 3-19 4-17 6-14 8-11 9-12 13-8 12-3 6-3-3 2-1-3-4-2 1v-2h-3l1-4-3-1 3-2-3-1 9-12 9-10 10-9 17-12 15-9 15-6 22-4z" fill="#272B58"/>
<path transform="translate(1045,920)" d="m0 0h77l6 5 2 7v10l-5 4-10 2-13 1h-12l1 2v49l-1 28-3 6-5 4-9 1-5-2-1-1v-23l1-19v-41l-1-3-4-1-24-2-6-2-2-3v-7l4-10 6-4z" fill="#191940"/>
<path transform="translate(936,243)" d="m0 0 5 1 14 15 5 4-1 4-17 12-12 11-11 9-13 11-10 9-14 11-13 12-7 6-3 1-8-7-11-15-3-9 8-6 9-6 16-13 10-7 16-13 10-8 11-8 9-7 8-6z" fill="#FDFDFD"/>
<path transform="translate(1271,341)" d="m0 0 11 1 10 3 9 7v2h2l6 11 2 5 1 12-2 10-5 10-7 6-7 3h-11l-12-3-10-6-6-7-4-10-1-5v-14l4-11 7-8 5-4z" fill="#FDFDFD"/>
<path transform="translate(918,496)" d="m0 0 3 2-2 7 1 10 3 14 10 15 5 6v2h2l7 9 13 15 12 16 13 17 8 10 12 14 10 12-1 2-3-1-2 2h-6l-1 4h-3v2l-3-1-9-11-9-10-8-10-16-21-10-13-11-14-11-13-12-16-6-12-1-5v-9l2-8 5-8 6-5h2z" fill="#17173F"/>
<path transform="translate(534,972)" d="m0 0h28l6 4 4 5v8l-4 6-3 2-10 1-58 1-31 1h-19l-6-3-4-7 1-6 4-5 10-3 51-3z" fill="#1C1B42"/>
<path transform="translate(1513,957)" d="m0 0h118l8 3 4 6v7l-3 5-7 3-90 1h-32l-5-3-3-7 1-7 5-6z" fill="#191940"/>
<path transform="translate(1555,490)" d="m0 0 8 1 17 6 16 8 15 10 13 12 3 10h-2l1 3-2 2-1 6 3 4v2h2l8 16v5h2l3 9v3l2 17-2 20-2 9-4 9-4 6-9 10-8 7-6 2 5-5 8-6 9-11 6-12 3-12v-22l-5-21-7-16-10-16-11-12-15-11-16-9-14-5-15-3-8-1h-21l-21 3-20 7-18 10-11 8-8 7-9 9-8 6-5 9-8 13-6 12-4 14-5 30v43l4 24 6 19 8 20 7 12-1 2-5-8-8-16-9-26-3-15-3-29 2-35 3-16 4-17 3-8 5-13 1-5 5-9 6-6h2v-2l7-6 8-2 1-4 3-3h2l1-3 4-2h3v-2l6-5h2l1-4 10-4 4-4 9-2 4-2h4v-2l15-3v-2l6 1 1-3v3l4-1 1-2v2l5-3h14l2-1 4 1 3-1 3 1 5-2v-2z" fill="#272A57"/>
<path transform="translate(970,920)" d="m0 0h6l6 5 2 5v31l-2 48-2 20-4 6-5 4h-9l-6-4-1-4v-89l2-10 9-10z" fill="#1B1A41"/>
<path transform="translate(962,488)" d="m0 0 4 1 8 7 9 10 13 18 14 19 11 14 11 13 8 10 3 3v2l5-2 10-9 7-8 4-5h2l2-4 14-15 6-7h2l2-4 8-8 1-2 4-1 4 2-1 5-2 3 1 2-4 7-15 15-7 8-9 7-3 6-8 9-8 5h-6l-3 5h-2v6l-5 2-12-11-11-13-7-10-5-5-11-13-10-13-11-16-10-15-4-4v-2h-2l-2-6 4-5z" fill="#191940"/>
<path transform="translate(1126,216)" d="m0 0 6 1 4 4 4 16 2 7 5 4 12 8 3 3-1 6-4 5-14 8-8 16-5 8-5 2-5-4-3-6-3-13-2-6-5-2-18-7-4-5 5-6 22-7 4-5 2-6 2-13 3-6z" fill="#181840"/>
<path transform="translate(803,480)" d="m0 0 13 1 8 4 3 3-4 7 3 11 5 12v18l-1 15-1 10 1 2-1 10-1 26-1 80-1 115-2 12-3 5-1-2 3-8 1-24v-77l1-36v-78l-1-22-4-18 3-7 4-11v-11l-5-10-8-7-6-3-9-1-8 3-3 1v2h-2l-2 5-3 6v12l4 14 1 2v7l-2 12-1 12v96l-1 83-1 48h-1l-1-10 1-74 1-83v-62l1-14v-12l-3-8-3-3h-2l-1 2-2-1-1-3-4-2v-2h-2v-3h-2v13h-1v-21l4-10 7-9 8-8 10-6 6-2z" fill="#2A2B57"/>
<path transform="translate(810,331)" d="m0 0 4 2 9 11 10 11 10 15 1 7-6 5-15 4-24 4-19 6h-6l2-9 8-16 9-15 10-17z" fill="#FDFDFD"/>
<path transform="translate(1050,117)" d="m0 0 3 1 7 23 4 4 19 11 4 3-1 4-18 10-4 5-4 8-5 14-2 1-6-10-5-12-6-9-14-7-10-4-1-4 5-3 12-2 5-5 7-11z" fill="#FDFDFD"/>
<path transform="translate(940,552)" d="m0 0 5 4 9 11 10 12 10 13 12 16 11 13 9 11 9 10 5 8-1 5-9 14-17 16-13 13-8 11-8 8-9 11-11 12-12 13-9 9-12 17-3 9 1 11 4 8v2l4 2 7 4h9l9-5 8-8 11-19 9-11 16-16 7-8 12-14 7-8 9-10 12-13 8-6 6-1 8 4 12 12 3 4v2h2l6 9v3l-9-11-6-8-5-4-3-3-6-3-1-1h-7l-16 15-8 8-8 10h-2l-2 5-11 12-1 2h-2l-1 4-9 10-4 4h-2l-1 3h-2v2l-5 4-3 5-2 1-2 5-5 10-4 7-2 1-1 3h-3v2l-7 4-7 1h-8l-6-3-5-5-4-5-2-8v-13l4-10 4-7 4-6 5-4 5-6h2l1-4 5-6h2v-2l4-2 3-5 5-3 2-3h2l2-4 6-10 3-3h2l1-4 4-5 2-1 2-5 5-9 7-5h2l1-5h-7l-14 14v-3l16-16 7-8 4-4v-4h2v-2h3l1-4 6-1 2-2h3l-24-28-14-18-12-16-8-10-11-13-5-6z" fill="#2A2D5A"/>
<path transform="translate(1272,321)" d="m0 0h11l7 1-1 3-7 2 1 7 3 5 11 6 8 8 7 14 1 4v12l-2 10-4 9-3 4h-2v2l-8 4-6 2-13-1-4-1v-2l-7-2-9-6-5-6-5-12-2 1-3-3-5 2-2 2-4-1-2 2-1-6v-8l4-16 6-11 7-9 7-7 10-6zm-1 20-9 3-8 7-5 8-2 7v14l3 11 5 8 7 6 9 4 9 2h11l10-5 6-7 4-10 1-13-2-9-4-8-3-5h-2l-2-4-9-6-14-3z" fill="#292D5A"/>
<path transform="translate(939,483)" d="m0 0h14l9 3v3l-3 6v3 2h2l7 9 8 12 14 20 13 16 7 9 5 5 11 14 11 12 5 4 5-1v-6h2l1-4 2-2h6l9-6 8-10 3-5 10-8 5-6 8-7 3-5 4-1-2 7-8 7-20 20-8 13-7 7-8 7-6 5-6-1-6-3-5-5-7-8-9-11-12-14-11-14-10-13-16-23-7-9-10-6-7-1-8 4-8 8-4 8 1 9 8 13 8 10v2h-2l-11-15-6-11-2-12-1-11 2-5h-2l-6 5-2-1 10-10 10-6z" fill="#2F2952"/>
<path transform="translate(717,1133)" d="m0 0 6 1 5 3 10 16 4 5h2l10-13 7-7 4-2 4 1 1 5 1 31-1 14h-10l-1-30-8 9-9 12-4-2-12-17h-1v12l-1 16h-7l-1-1v-35z" fill="#0D1249"/>
<path transform="translate(1126,1136)" d="m0 0h15l14 3 8 7 4 8 1 3v11l-5 10-7 7-7 3-9 1h-12l-1-1-1-16zm12 13-1 5v25l9-2v-6l-1-6 7-11-2-3-6-2z" fill="#212147"/>
<path transform="translate(422,451)" d="m0 0 1 2-5 15v14l4 11 1 3 4 2 5 3 4 1h7l5-4-5-1v-1l12-3 11-5 11-3h18l9 3 6 5 1 3-3 7-4 2-2 6 4 8 1 3 2 8v15l-2 5v29l-1 41-1 9h-1v-101l-3-12-4-7-8-4h-11l-16 3h-11l-17-4-10-5-6-8-2-7v-18l4-12z" fill="#2A2D5A"/>
<path transform="translate(896,1132)" d="m0 0h12l8 5 4 8v2l-7 1-10-3-9 1-5 4-3 6v7l5 9 6 4 7 1 3-1 1-7-7-3-1-1v-8l1-1 14 1 6 1v15l-3 9-2 2-5 1h-19l-7-3-5-5-4-6-1-4v-14l5-10 9-8z" fill="#0E134A"/>
<path transform="translate(1434,1138)" d="m0 0h14l7 4 4 7v3h-8l-9-3-7 1-5 4-2 4v10l4 6 8 5h10l1-5-9-3-1-2v-8l3-1 18 3 2 1v13l-2 9-7 3h-18l-9-4-5-4-7-11-1-3v-9l3-8 4-5 10-6z" fill="#0C124A"/>
<path transform="translate(1378,1136)" d="m0 0 9 1 1 1-1 30-1 18-1 4-5-2-5-5-18-21-2-1 1 5v23l-10-1-1-2v-39l1-8h5l14 15 11 11 1-26z" fill="#202046"/>
<path transform="translate(933,77)" d="m0 0 8 2 8 4 9 7 4 5 1 5-9 7-16 10-1 1h-5l-9-11-11-12 2-4 16-12z" fill="#1A1A42"/>
<path transform="translate(955,1134)" d="m0 0h14l19 1-1 9h-21v12h18v9l-1 1-17 1-1 10h19l1 1-1 10h-15l-15-1v-36z" fill="#1F1F45"/>
<path transform="translate(1069,1137)" d="m0 0h27l-1 7-5 2-16 1v8l17 2 1 1v7l-3 2h-15v7l-1 3 21 1 1 9-1 1h-30l-2-4v-46z" fill="#242349"/>
<path transform="translate(966,200)" d="m0 0h10l-3 2-2-1v3h-2l-2 8 3 5 2 1v2l3 1v2l4 2 10 13 3 10v7l-3 1v2l-7-1-9-7v-2l-4-2-6-7-5-10-2-10-7-2h-2l-2 1h-6l4-4 14-10z" fill="#2E315D"/>
<path transform="translate(1518,542)" d="m0 0h20l13 3 14 5 11 7 10 9 7 10 5 11 2 10v10l-3 9-8 10-11 11-10 4-12 2-61 4h-51l-9-3-1-7 3-19 5-15 7-11 12-16 11-11 15-10 17-9 8-3zm5 5-8 1h-9l-2 2-10 4-13 7-15 12-7 8-9 12-4 8v2h-2l-3 10-3 9-1 18 4 1v2l8 2 8 1h29l41-2 29-3 16-5 4-2v-2l4-1 4-5v-2l4-2v-2h2l4-7 3-5 1-8v-8l-4-11-6-10-11-11-16-8-12-3-16-2z" fill="#272955"/>
<path transform="translate(1136,72)" d="m0 0 6 1 10 9 9 11 1 4-8 7-11 6-6 6-4-2-7-8-7-11 1-5 12-14z" fill="#1A1A41"/>
<path transform="translate(823,1134)" d="m0 0 5 1 10 21 8 21 3 10h-8l-3-3-2-6-3-1h-18l-3 5-2 5-3 1-4-1 1-8 13-31zm1 21-5 8-1 4 3 1h10l-1-5-4-8z" fill="#0C1148"/>
<path transform="translate(1077,654)" d="m0 0h2l8 13 14 18 6 7 2 2 2 5 4 1 10 12 6 9v2l3 1 7 11 3 3 4 7 7 8 2 1v2l4 2v2l4 1 10 10 4 7 1 5v11l-4 10-2 1-2 4h-2l-2 5-4 2v2l-12 1-2-4h2v-2l-6 1-9-11-10-10-8-10-9-11-8-10-14-18-9-12 1-2 11 13 4 6 13 16 10 13 14 17 9 9 10 5h9l8-3 7-6 2-4v-12l-5-10-26-26-12-16-10-12-12-16-22-28-10-14-3-6z" fill="#2F2952"/>
<path transform="translate(1647,744)" d="m0 0h6l8 6 6 11 1 11-4 11-6 5 2-5 4-7 1-10-5-10-4-5-8-4-7 4-4 2v2l-11 9-11 7-16 8-15 5-11 2h-33l-20-4-14-5-4-3 12 2 4-1 8 2h5l2-1 17 2 4 1h15l2 2 8-1 4-1 12-4 1-2 10-4 20-10 3-3h2v-2l8-6h2v-2z" fill="#252956"/>
<path transform="translate(583,390)" d="m0 0 4 1 18 10 16 12 9 7 5 5 9 8 5 4v2l3 1 7 8 4 5 3 3 9 14 7 10 7 15 4 14 1 8 2 5 3 15-2 13-1 15-3 19-6 18-5 12-10 15-3 6h-2l-2 4-5 6-1 2h-2l-1 4h-2l-1 3-10 8-9 7-3-1 14-11 12-12 10-13 10-15 8-17 5-17 3-21v-27l-3-19-6-20-8-17-18-27-12-13-8-8-11-9-14-12-15-9-15-8z" fill="#2F2952"/>
<path transform="translate(937,241)" d="m0 0 6 2 12 14 2 3-4-2-8-8-5-6-6 1-10 8-15 11-14 11-16 13-11 8-16 13-13 8-1 3 5 10 11 14 5 4 6-3 12-12 14-11 11-10 11-9 28-24 16-12 2 1-1 5-5 3v2h-4l-1 2-4 2h-2l-10 9-33 27-9 8-7 6h-2l-1 3-8 7-7 7h-3v2l-7-2-5-5-9-12-6-12 1-4 5-5 8-4 5-6 7-4h2l1-4 8-6 7-6 9-6 7-4 7-6 4-4 7-4 5-5 9-7 4-3z" fill="#2A2954"/>
<path transform="translate(1043,696)" d="m0 0 7 1 8 6 9 9 3 4v2h2l6 9v3l-9-11-6-8-5-4-3-3-6-3-1-1h-7l-16 15-8 8-8 10h-2l-2 5-11 12-1 2h-2l-1 4-9 10-4 4h-2l-1 3h-2v2l-5 4-3 5-2 1-2 5-5 10-4 7-2 1-1 3h-3v2l-7 4-7 1h-8l-6-3-5-5-4-5-2-8v-13l4-10 4-7 4-6 5-4 5-6h2l1-4 5-6h2v-2l4-2 3-5 5-3 2-3h2l2-4 7-5-2 4-8 9-7 8-15 16-8 8-12 17-3 9 1 11 4 8v2l4 2 7 4h9l9-5 8-8 11-19 9-11 16-16 7-8 12-14 7-8 9-10 12-13 8-6z" fill="#302A52"/>
<path transform="translate(796,494)" d="m0 0h12l8 4 7 6v2h3l5 12v18l-1 15-1 10 1 2-1 10-1 26-1 80-1 115-2 12-3 5-1-2 3-8 1-24v-77l1-36v-78l-1-22-4-18 3-7 4-11v-11l-5-10-8-7-6-3-9-1-8 3-3 1v2h-2l-2 5-2 1 1-6 6-5z" fill="#2F2952"/>
<path transform="translate(649,568)" d="m0 0h1l-1 10-5 13-10 16-12 16-10 10-13 9-15 8-16 5-11 2-14 1h-17v-1l14-1 4-2 9-2 3-1v-4l5-3h8l7-3 12-3 5-1v-2l11-4 8-4 3-3h2v-2l2-1 2-5 4-5 4-4 4-7 4-6h2l1-4h2l1-5 3-7z" fill="#252956"/>
<path transform="translate(1278,499)" d="m0 0h13l9 6 2 3-1 3-5-6-10-4-9 1-8 4-5 4-3 5v9l1 10 1 160 1 88 2 13 4 9 7 6 5 2h13l6-3 4-5-1 7h-2l-1 3-6 4-13-1-8-4-8-11-3-10-1-9-1-84-1-152-2-5-3-6-4-7 1-11 5-7 5-3 6-5z" fill="#2F2952"/>
<path transform="translate(1243,1136)" d="m0 0h28v8l-5 2h-10v30l-1 11-1 1h-6l-1-2-2-39-11-1-1-1v-7l1-1z" fill="#201F46"/>
<path transform="translate(485,417)" d="m0 0h30l24 3 19 5 16 7 11 6 16 11 13 12 10 11 10 14 9 15 6 18 3 13v30l-1 6h-1v-35l-4-17-5-13-6-11-9-13-6-8-5-5v-2h-2l-5-5-9-8-10-6-3-1v-2l-7-2v-2l-6-1-2-2-5-1v-2l-12-3-16-5-17-2-2-1-14-1h-19l-16 2-13 4-13 7-14 11-5 7h-2l2-5 10-10 13-9 10-5 16-4z" fill="#272955"/>
<path transform="translate(394,525)" d="m0 0 8 6 13 8 9 4 12 3 23 4 8 3-3 10-1 5-1 28-1 54-1 30h-1v-62l1-40 1-15 1-6h-10l-7-1-3-1-14-1-4-2-14-6-10-10-2-5-4-4z" fill="#252956"/>
<path transform="translate(939,483)" d="m0 0h14l9 3v3l-3 6v3 2h2l1 4-9-6-7-2-4-1-5 2-4 4h-3l-2 4-5 8-2 7h-1l-1-9-1-6 2-7h-2l-6 5-2-1 10-10 10-6z" fill="#2A2D59"/>
<path transform="translate(1452,527)" d="m0 0 2 1-11 8-13 13-8 6-5 9-8 13-6 12-4 14-5 30v43l4 24 6 19 8 20 7 12-1 2-5-8-8-16-9-26-3-15-3-29 2-35 3-16 4-17 3-8 5-13 1-5 5-9 6-6h2v-2l7-6 8-2 1-4 3-3h2l1-3z" fill="#2C2953"/>
<path transform="translate(1155,485)" d="m0 0h8l12 3 8 7 5 8 2 7v17l-2-4-1-3-4 2-2-5-5-10v-2h-2v-2l-3 1-5-3-8-4 3-5-8-1-9 1 1-4z" fill="#1D1E44"/>
<path transform="translate(1434,1138)" d="m0 0h14l7 4 4 7v3h-8l-9-3-7 1-6 5h-2l-1 13-4 4h-5l-2-5v-9l3-8 4-5 10-6z" fill="#0B1048"/>
<path transform="translate(962,217)" d="m0 0 6 1 16 15 4 6 1 7-3 4h-8l-6-4-8-9-4-9v-9z" fill="#FDFDFD"/>
<path transform="translate(1154,1141)" d="m0 0 5 1 6 7 3 8v11l-5 10-7 7-7 3h-18l-1-3 5-3 5-1h6l12-6-1-17-3-10h-2l-1-4 3-1z" fill="#080E46"/>
<path transform="translate(1136,493)" d="m0 0 2 1-2 3h2v2l5-1 2 2 7 1v1l-10 3-11 7-9 10-8 14-6 9-1-3 1-5 3-6-1-2h2l1-7-6-1 6-7 14-14z" fill="#322C54"/>
<path transform="translate(670,1135)" d="m0 0h7l1 1v19l-1 32-4 1-5-2-1-7v-15l1-28z" fill="#0E144B"/>
<path transform="translate(1573,512)" d="m0 0 6 1 9 5 2-2 3 3v2l4 2 5 2 2 4 6 4 8 10 3 1 4 7 1 3h2l8 16v5h2l3 9v3l2 17-2 20-2 9-4 9-4 6-9 10-8 7-6 2 5-5 8-6 9-11 6-12 3-12v-22l-5-21-7-16-10-16-11-12-15-11-16-9z" fill="#2F2952"/>
<path transform="translate(901,1156)" d="m0 0 14 1 6 1v15l-3 9-2 2-5 1h-15l1-5h4v-2l6-2 1-7-7-3-1-1v-8z" fill="#0A0F46"/>
<path transform="translate(1603,510)" d="m0 0 9 6 12 11 3 10h-2l1 3-2 2-2 5-8-8-6-7-6-3 1-5 3 1-5-5-6-7 2-2 3 2v-2z" fill="#2A2E5A"/>
<path transform="translate(1301,1140)" d="m0 0h9l1 3-1 44-3 1-6-2-1-1v-33z" fill="#1D1D45"/>
<path transform="translate(1196,1141)" d="m0 0h10v18l-1 21-1 8-5 1-3-2z" fill="#1D1D44"/>
<path transform="translate(937,241)" d="m0 0 6 2 12 14 2 3-4-2-8-8-5-6-6 1-10 8-15 11-14 11-16 13-11 8-13 10-6 2 3-5 9-6h2l1-4 8-6 7-6 9-6 7-4 7-6 4-4 7-4 5-5 9-7 4-3z" fill="#282955"/>
<path transform="translate(810,329)" d="m0 0 5 3 9 10 9 11 7 9 4 7 1 9-6 5-9 3-29 5-24 7-4-1 1-10 3-10 3-4 5-9 6-10 1-3h2l1-5 7-12zm0 2-8 9-13 23-9 15-5 11-1 7 9-1 16-5 24-4 15-4 6-5-1-7-8-12-11-13-8-9-4-5z" fill="#2B2954"/>
<path transform="translate(1502,547)" d="m0 0 2 1-4 2-1 3-17 8-11 9-3 3h-2l-1 3h-2l-2 4-8 10-7 13h-2l-2 10-3 9-1 18 3 1v2l16 2h29l29-1-1 2-19 1h-51l-9-3-1-7 3-19 5-15 7-11 12-16 11-11 15-10z" fill="#2F2952"/>
<path transform="translate(1106,540)" d="m0 0h2l-2 7-8 7-20 20-4 6-3 3-6 7-8 7-7 6h-6l1-3h2v-6h2l1-4 2-2h6l9-6 8-10 3-5 10-8 5-6 8-7 3-5z" fill="#252856"/>
<path transform="translate(1143,489)" d="m0 0 2 2 13-1 4 2-3 4 5 3 6 3 4 1v2h2l2 6 2 1 2 5 3 4 3-2-1 7-6-1h-2l-1 2v-8l-5-10-8-5-8-2-13-1-1-2h-5v-2h-2l2-5z" fill="#262A57"/>
<path transform="translate(769,1142)" d="m0 0h1l1 31-1 14h-10l-1-35 3-2 4 4 2 3z" fill="#1F1F46"/>
<path transform="translate(1079,730)" d="m0 0 5 5 7 8 4 6 13 16 10 13 14 17 9 9 10 5h16l5-4 1 3-3 1-2 5-4 2v2l-12 1-2-4h2v-2l-6 1-9-11-10-10-8-10-9-11-8-10-14-18-9-12z" fill="#252957"/>
<path transform="translate(1048,118)" d="m0 0 1 2-12 21-7 9-10 2-8 3v3l10 4 14 7 6 8 5 11 5 10 2 2 3-7 1 3-3 6-5-1-5-9-4-11-6-7v-2h-3v-2l-8-1-10-5-5-6 2-5 16-6 3-2 1-3h2l2-5 3-6h2l2-6z" fill="#282955"/>
<path transform="translate(1449,788)" d="m0 0 4 2 10 9 14 9 17 8 21 7 16 3 31 3h15v1l-9 1h-10l-25-2-5-1-15-1-4-2-9-1-9-4-13-5-7-6-3-1v-2l-4-2-9-9-6-5z" fill="#282955"/>
<path transform="translate(1427,1155)" d="m0 0 2 1-1 2v10l4 6 8 5 7 1 3 3v2l4 2 1 2h-18l-9-4-5-4-5-7 1-3 6-1 1-13z" fill="#1D1D44"/>
<path transform="translate(1278,499)" d="m0 0h13l9 6 2 3-1 3-5-6-10-4-9 1-8 4-5 4-3 5v9l1 10v21l-2-1v-7l-2-5-3-6-4-7 1-11 5-7 5-3 6-5z" fill="#262956"/>
<path transform="translate(1290,342)" d="m0 0 5 2 8 7 6 9 4 11v12l-2 10-4 9-3 4h-2v2l-8 4-6 2-13-1-4-1v-2l-7-2-9-6-5-6-4-11v-20l2-3v18l3 11 5 8 8 6 11 4 5 1h11l10-5 6-8 3-8 1-13-2-9-4-8-2-5h-2l-5-5-9-6z" fill="#2F2952"/>
<path transform="translate(1403,581)" d="m0 0 1 3-4 14-5 27-1 8v43l4 24 6 19 8 20 7 12-1 2-5-8-8-16-9-26-3-15-3-29 2-35 3-16 4-17 3-8z" fill="#2C2953"/>
<path transform="translate(482,358)" d="m0 0h14l-1 2h-3v2l-6 1-2-2-6 3-19 3-14 4-1 1h-6l-2 1-2-2v-2l15-6 22-4z" fill="#24244A"/>
<path transform="translate(962,717)" d="m0 0v3l-9 10-7 8-15 16-8 8-12 17-3 6-2 1 3-11 4-5 3-6 5-6 6-5 1-2h2l1-4 5-6h2v-2l4-2 3-5 5-3 2-3h2l2-4z" fill="#272955"/>
<path transform="translate(979,765)" d="m0 0v3l-4 2-1 3h-2v2l-5 4-3 5-2 1-2 5-5 10-4 7-2 1-1 3h-3v2l-7 4-7 1h-8l-6-3-5-5-4-5-2-8v-11l2-1v9l3 10 2 5 4 2 7 4h9l9-5 8-8 11-19 9-11 4-4z" fill="#2A2954"/>
<path transform="translate(1647,744)" d="m0 0h6l8 6 6 11 1 11-4 11-6 5 2-5 4-7 1-10-5-10-4-5-8-4-7 4-4 2v2l-11 9-11 7-16 8-5 2-3-1 25-12 11-8 12-10 2-4z" fill="#2E2952"/>
<path transform="translate(500,512)" d="m0 0 3 1 3 6 1 3 2 8v15l-2 5v29l-1 41-1 9h-1v-101l-3-12z" fill="#2F2952"/>
<path transform="translate(959,219)" d="m0 0h1l1 9 6 12 7 7 4 2h8l2-3-1-7-7-9-9-8 3-2 1 3 4 2 10 13 3 10v7l-3 1v2l-7-1-9-7v-2l-4-2-6-7-5-10z" fill="#272955"/>
<path transform="translate(649,568)" d="m0 0h1l-1 10-5 13-10 16-12 16-10 10-8 6-2-1 10-9h2l2-4 1-3 2-1 2-5 4-5 4-4 4-7 4-6h2l1-4h2l1-5 3-7z" fill="#262956"/>
<path transform="translate(484,376)" d="m0 0h18v1l-33 3-19 4-17 6-14 8-11 9-12 13-8 12-1-3 4-7 3-5h2l1-3 5-5 10-9h2v-2l6-4 3-1 1-2 12-5 6-3 17-4z" fill="#302A52"/>
<path transform="translate(589,442)" d="m0 0 5 2 9 7 10 9 7 7 10 13 10 16 5 10 6 21 1 5v30l-1 6h-1v-35l-4-17-5-13-6-11-9-13-6-8-5-5v-2h-2l-5-5-9-8-9-6z" fill="#2F2952"/>
<path transform="translate(1512,543)" d="m0 0h21l14 2 10 3 7 3-1 2-16-3-4-1-11-1h-9l-8 1h-9l-2 2-4-1 4-4z" fill="#252956"/>
<path transform="translate(1585,501)" d="m0 0 6 1 11 7 1 2h-3v2l-4-1v3l3 1 5 5 2 4h-4-3l-8-5-2-2-2-4 1-1 1-3-2-3-2-1z" fill="#1C1C43"/>
<path transform="translate(1598,671)" d="m0 0 3 1-14 6-21 5-20 2-33 1-28-1h-41v-1l6-1h95l19-2 18-4z" fill="#2D2953"/>
<path transform="translate(485,417)" d="m0 0h30l10 1v1h-11l-7-1v2h-21l-16 2-13 4-13 7-14 11-5 7h-2l2-5 10-10 13-9 10-5 16-4z" fill="#2F2952"/>
<path transform="translate(1150,1151)" d="m0 0 4 2 3 6v10l-4 6-3 2h-4l-2-8 1-5 6-11z" fill="#FDFDFD"/>
<path transform="translate(957,267)" d="m0 0 2 1-1 5-5 3v2h-4l-1 2-4 2h-2l-10 9-33 27-7 6-2-1 12-11 11-9 28-24 12-9z" fill="#302A52"/>
<path transform="translate(937,241)" d="m0 0 6 2 12 14 2 3-4-2-8-8-5-6-6 1-10 8-15 11-11 9-2-1 2-4 5-5 10-6 5-5 9-7 4-3z" fill="#292955"/>
<path transform="translate(1130,498)" d="m0 0m-1 1m-2 1 2 1-9 9 2 2-2 4 1 4-2 1-4 10-3 8-4 6-1-3 1-5 3-6-1-2h2l1-7-6-1 6-7z" fill="#3E4068"/>
<path transform="translate(670,1135)" d="m0 0h7l1 1v19l-2 1v-2l-5 1-3 1v-20z" fill="#333356"/>
<path transform="translate(461,551)" d="m0 0 6 2-3 10-1 5-1 28-1 54-1 30h-1v-62l1-40 1-15 3-9z" fill="#302A52"/>
<path transform="translate(940,552)" d="m0 0 5 4 9 11 10 12 10 13 12 16 11 13 9 11 9 10 1 3-4-2-9-11-13-15-14-18-12-16-8-10-11-13-5-6z" fill="#2F2952"/>
<path transform="translate(1518,542)" d="m0 0h20l13 3 14 5 11 7 10 9 7 10 5 11 1 8-2-3-4-11-6-10-2-4-4-2-4-4-14-7v-2l-6-3-10-3-14-2-15-1z" fill="#2F2952"/>
<path transform="translate(1434,540)" d="m0 0 2 1-16 14-5 7-7 14-4 5v-3l3-10 2-5 5-8 5-5h2v-2l7-6z" fill="#252957"/>
<path transform="translate(1106,540)" d="m0 0h2l-2 7-8 7-23 23 1-8 8-7 5-5 6-5 5-5 4-6z" fill="#272955"/>
<path transform="translate(1079,730)" d="m0 0 5 5 7 8 4 6 13 16 10 13 14 17 11 11-4-1-12-12-8-10-9-11-8-10-14-18-9-12z" fill="#2F2952"/>
<path transform="translate(1058,135)" d="m0 0 2 3 2 5 5 2 9 5 7 3 6 6-1 4-8 6-9 4-6 7-5 10-2 3 1-7 5-10 7-6 15-8v-3l-13-8-12-7-3-5z" fill="#2E2952"/>
<path transform="translate(1538,501)" d="m0 0 2 1-1 2 10-1v2l3 1-14-1h-21l-21 3-20 7-6 3h-2v-2l16-8 18-4h12l1-2h22z" fill="#302A52"/>
<path transform="translate(815,334)" d="m0 0h2l9 11 10 11 7 10 2 6v6l-6 5-9 3-16 3h-7v-1l29-6 6-4 1-5-4-8-9-12-11-12-4-5z" fill="#2F2952"/>
<path transform="translate(1043,696)" d="m0 0 7 1 8 6 9 9 3 4v2h2l6 9v3l-9-11-6-8-5-4-3-3-6-3-1-1h-7l-10 9-2-2 10-9z" fill="#2C2953"/>
<path transform="translate(1304,804)" d="m0 0 1 3-1 4h-2l-1 3-6 4-13-1-8-4 1-3 7 2h13l6-3z" fill="#272955"/>
<path transform="translate(422,451)" d="m0 0 1 2-5 15v14l4 11 1 3 4 2 5 3 19 5v1l-10-1-12-4-6-4-5-7-2-7v-18l4-12z" fill="#302A52"/>
<path transform="translate(1510,823)" d="m0 0 9 1 20 3 27 2h11v1l-9 1h-10l-25-2-5-1-15-1-3-2z" fill="#2B2954"/>
<path transform="translate(1641,747)" d="m0 0 4 1-6 5h-2v2l-11 9-11 7-16 8-5 2-3-1 25-12 11-8 12-10z" fill="#302A52"/>
<path transform="translate(773,496)" d="m0 0 7 1-2 6-4 6-6 2-2-2 5-11z" fill="#15153E"/>
<path transform="translate(901,1156)" d="m0 0 14 1v1h-5v2h-2l2 6-2 3-7-3-1-1v-8z" fill="#37375A"/>
<path transform="translate(907,785)" d="m0 0 1 3 1 11 4 8v2l4 2 7 4h9l6-2v2l-7 3h-9l-6-3-5-5-4-5-2-8v-11z" fill="#2F2952"/>
<path transform="translate(637,599)" d="m0 0v3l-11 16-9 10-10 9-5 2 4-5 6-5h2l2-4 1-3 6-4 12-17z" fill="#2F2952"/>
<path transform="translate(796,494)" d="m0 0h12l8 4 7 6v2l3 1-3 1-7-7-8-4-9-1-8 3-3 1v2h-2l-2 5-2 1 1-6 6-5z" fill="#302A52"/>
<path transform="translate(477,494)" d="m0 0 9 1 4 3v3l-5 2-8 1-2-5z" fill="#15153D"/>
<path transform="translate(411,538)" d="m0 0 6 2 11 4 15 3 16 3v1h-11l-20-3-16-8z" fill="#302A52"/>
<path transform="translate(962,717)" d="m0 0v3l-9 10-7 8-10 11-1-2 1-2h2l2-5 5-8 5-3 2-3h2l2-4z" fill="#272955"/>
<path transform="translate(1573,512)" d="m0 0 6 1 9 5 2-2 3 3v2l4 2 5 2 2 4 4 2-1 2-4-1-12-9-16-9z" fill="#2C2953"/>
<path transform="translate(1461,742)" d="m0 0 7 6 5 4v2l4 2 15 11 9 5 1 2-6-2-13-8-11-9-11-11z" fill="#302A52"/>
<path transform="translate(485,417)" d="m0 0h30l10 1v1h-11l-7-1v2h-33v-2z" fill="#2D2953"/>
<path transform="translate(996,678)" d="m0 0 3 1-19 19-8 11-8 8v-3l8-8 9-13 13-13h2z" fill="#302A52"/>
<path transform="translate(1392,636)" d="m0 0h1l1 52h-1l-3-29 1-21z" fill="#2A2954"/>
<path transform="translate(928,290)" d="m0 0m-1 1m-1 1m-1 1 1 3-11 9-10 8-10 9-5 2 4-5 11-9 10-9z" fill="#302A52"/>
<path transform="translate(1278,499)" d="m0 0h13l9 6 2 3-1 3-5-6-10-4-9 1-8 4-5 3 1-4 9-5z" fill="#2B2954"/>
<path transform="translate(845,1177)" d="m0 0 2 2 2 8h-8l-3-3-1-4 4-2z" fill="#27264C"/>
<path transform="translate(827,539)" d="m0 0 3 1v15l-2 4-3-3h-1l-1-7 2-7h2z" fill="#2C2953"/>
<path transform="translate(919,1168)" d="m0 0h2l-1 9-2 5-2 2-3-1v-4l1-7z" fill="#232349"/>
<path transform="translate(1419,753)" d="m0 0 4 4 10 14 16 16h-3l-7-6-5-5-5-6v-2h-2l-8-13z" fill="#2E2952"/>
<path transform="translate(1269,408)" d="m0 0 11 2h11l5-1 1 2-9 3-13-1-4-1v-2h-2z" fill="#2D2953"/>
<path transform="translate(886,1166)" d="m0 0 9 9 6 3v2l-5 1-6-3-4-6z" fill="#26264C"/>
<path transform="translate(810,329)" d="m0 0 5 3 1 2-6-2-7 8-3 3-4 7h-2l2-6 6-10z" fill="#282955"/>
<path transform="translate(1516,780)" d="m0 0 8 1 19 2 16 2v1h-19l-20-4z" fill="#302A52"/>
<path transform="translate(1136,1150)" d="m0 0h2l-1 25-2-1-2-12 1-6-1-2h2z" fill="#3C3E67"/>
<path transform="translate(1647,797)" d="m0 0 2 1-9 8-18 10-11 5-4-1 18-8 13-8z" fill="#302A52"/>
<path transform="translate(1141,806)" d="m0 0 5 1 5 2h13l-2 2-5 1-4 1h-5-3l-4-5z" fill="#272955"/>
<path transform="translate(1420,555)" d="m0 0 1 3-6 9-9 15-3 7-1-3 8-16 6-11z" fill="#302A52"/>
<path transform="translate(1053,700)" d="m0 0 4 2 10 10 3 4v2h2l6 9v3l-9-11-6-8-5-4-3-3-2-1z" fill="#2F2952"/>
<path transform="translate(1275,810)" d="m0 0 7 2 13 1-3 3-10 1-8-4z" fill="#2E2952"/>
<path transform="translate(1043,181)" d="m0 0 3 4 5 12 3 3 3-7 1 3-3 6-5-1-5-9-2-6z" fill="#2E2952"/>
<path transform="translate(959,219)" d="m0 0h1l1 9 6 12 6 7-4-1-6-7-5-10z" fill="#2A2954"/>
<path transform="translate(1502,547)" d="m0 0 2 1-4 2-1 3-18 8 1-3 10-6z" fill="#2C2953"/>
<path transform="translate(957,267)" d="m0 0 2 1-1 5-5 3v2h-4l-1 2-4 2-1-3 8-6h2v-3z" fill="#262956"/>
<path transform="translate(1270,340)" d="m0 0 4 1-11 3-10 9-4 9-1-4 5-9 7-6 4-2z" fill="#302A52"/>
<path transform="translate(1058,135)" d="m0 0 2 3 2 5 5 2 9 5 7 3 1 2-6-1-14-8-5-5z" fill="#2A2954"/>
<path transform="translate(1312,381)" d="m0 0 1 2-2 10-4 9-3 4h-2v2l-6 2 5-5 6-8 3-8 1-7z" fill="#302A52"/>
<path transform="translate(973,220)" d="m0 0 2 1v2l4 2 10 13 1 2v6l-5-10-9-10-5-5z" fill="#2A2954"/>
<path transform="translate(937,241)" d="m0 0 6 2 12 14 2 3-4-2-8-8-5-6h-6v-2z" fill="#2F2952"/>
<path transform="translate(990,752)" d="m0 0 1 3-10 11-6 2 6-7z" fill="#2E2952"/>
<path transform="translate(633,602)" d="m0 0v3l-10 14-3 2 1-5 4-5z" fill="#252957"/>
<path transform="translate(861,297)" d="m0 0 2 1-6 7-6 3-2-1 5-6z" fill="#262956"/>
<path transform="translate(1071,170)" d="m0 0v3l-6 7-5 10-2 3 1-7 5-10z" fill="#302A52"/>
<path transform="translate(1018,162)" d="m0 0 7 1 11 6 6 8-1 2-5-7-10-6-6-2z" fill="#302A52"/>
<path transform="translate(1591,620)" d="m0 0 2 1-7 8-8 8-4 2-3-1 8-5 7-7z" fill="#302A52"/>
<path transform="translate(952,802)" d="m0 0v3l-3 3-1 3h-3v2l-7 4-2-2h3v-3l6-3z" fill="#252956"/>
<path transform="translate(889,324)" d="m0 0 2 1-8 7h-2l-1 3-5 4-3-1 11-10z" fill="#2C2953"/>
<path transform="translate(1090,559)" d="m0 0 2 1-17 17 2-6z" fill="#302A52"/>
<path transform="translate(589,442)" d="m0 0 5 2 9 7 2 4-5-3-10-7z" fill="#2C2953"/>
<path transform="translate(761,1181)" d="m0 0h7l1 5h-9z" fill="#020842"/>
<path transform="translate(590,644)" d="m0 0 4 1-13 6-6 1 5-4 6-3z" fill="#302A52"/>
<path transform="translate(500,512)" d="m0 0 3 1 3 6 1 3 1 6-2 3v-8l-3-1z" fill="#292955"/>
<path transform="translate(649,568)" d="m0 0h1l-1 10-4 11-2-1 1-4z" fill="#2B2954"/>
<path transform="translate(951,730)" d="m0 0v3l-10 10-5 6-1-2 1-2h2l2-5 10-9z" fill="#302A52"/>
<path transform="translate(827,539)" d="m0 0 1 4-1 9 1 2-2 3-2-1-1-7 2-7h2z" fill="#252957"/>
<path transform="translate(1286,500)" d="m0 0h7l8 6 1 5-5-5-7-4z" fill="#2F2952"/>
<path transform="translate(955,796)" d="m0 0 1 2-7 8-5 5-2-1 8-8 3-5z" fill="#2C2953"/>
<path transform="translate(936,283)" d="m0 0 3 2-12 10v-3z" fill="#2D2953"/>
<path transform="translate(1043,696)" d="m0 0 7 1 3 2v3l-4-1-6-2z" fill="#292955"/>
<path transform="translate(762,515)" d="m0 0 2 4-2 18h-1v-21z" fill="#565676"/>
<path transform="translate(769,500)" d="m0 0m-1 2 1 3-2 4 1 3-2 2-3-2 2-6z" fill="#31335C"/>
<path transform="translate(489,358)" d="m0 0h7l-1 2h-3v2l-6 1-2-4z" fill="#15153D"/>
<path transform="translate(1148,809)" d="m0 0h16l-2 2-5 1-4 1-5-2z" fill="#2E2952"/>
<path transform="translate(1666,772)" d="m0 0 1 3-4 9-5 4 2-5 4-7z" fill="#302A52"/>
<path transform="translate(1598,595)" d="m0 0 2 2v10l-3 1-1-4z" fill="#282955"/>
<path transform="translate(1015,151)" d="m0 0h5l-8 4v3l6 3-3 1-5-2-1-4 4-4z" fill="#2C2953"/>
<path transform="translate(1442,1160)" d="m0 0h2l-1 8 5 3-4 1-3-3v-8z" fill="#3C3D61"/>
<path transform="translate(1275,810)" d="m0 0 4 1 1 3 6 2-4 1-8-4z" fill="#262956"/>
<path transform="translate(1043,181)" d="m0 0 3 4 2 11-2-1-3-9z" fill="#2A2954"/>
</svg>
